{
  "asset": {
    "generator": "Khronos glTF Blender I/O v4.1.63",
    "version": "2.0"
  },
  "scene": 1,
  "scenes": [
    {
      "name": "locomotive",
      "nodes": [
        0
      ]
    },
    {
      "name": "Scene",
      "nodes": [
        1,
        2,
        3,
        4,
        5,
        6,
        7
      ]
    }
  ],
  "nodes": [
    {
      "mesh": 0,
      "name": "locomotive.001",
      "translation": [
        0,
        1,
        0
      ]
    },
    {
      "mesh": 1,
      "name": "Plane",
      "translation": [
        0,
        1,
        0
      ]
    },
    {
      "mesh": 2,
      "name": "Cube"
    },
    {
      "mesh": 3,
      "name": "Plane.001"
    },
    {
      "mesh": 4,
      "name": "loco-back-truck",
      "rotation": [
        0,
        0,
        -1,
        0
      ],
      "scale": [
        -1,
        -1,
        -1
      ],
      "translation": [
        0,
        0.8910537362098694,
        -2.399840831756592
      ]
    },
    {
      "mesh": 5,
      "name": "loco-front-truck",
      "translation": [
        0,
        0.8910537362098694,
        2.399840831756592
      ]
    },
    {
      "mesh": 6,
      "name": "locomotive",
      "translation": [
        0,
        1.2999999523162842,
        0
      ]
    },
    {
      "mesh": 7,
      "name": "strait",
      "translation": [
        0,
        0,
        4
      ]
    }
  ],
  "materials": [
    {
      "doubleSided": true,
      "name": "locomotive.001",
      "pbrMetallicRoughness": {
        "metallicFactor": 0,
        "roughnessFactor": 0.5
      }
    },
    {
      "doubleSided": true,
      "name": "tunnel",
      "pbrMetallicRoughness": {
        "baseColorTexture": {
          "index": 0
        },
        "metallicFactor": 0,
        "roughnessFactor": 0.5
      }
    },
    {
      "doubleSided": true,
      "name": "mountain",
      "pbrMetallicRoughness": {
        "baseColorTexture": {
          "index": 1
        },
        "metallicFactor": 0,
        "roughnessFactor": 0.5
      }
    },
    {
      "doubleSided": true,
      "name": "loco-truck",
      "pbrMetallicRoughness": {
        "baseColorTexture": {
          "index": 2
        },
        "metallicFactor": 0,
        "roughnessFactor": 0.5
      }
    },
    {
      "doubleSided": true,
      "name": "locomotive",
      "pbrMetallicRoughness": {
        "baseColorTexture": {
          "index": 3
        },
        "metallicFactor": 0,
        "roughnessFactor": 0.5
      }
    },
    {
      "doubleSided": true,
      "name": "traintrack",
      "pbrMetallicRoughness": {
        "baseColorTexture": {
          "index": 4
        },
        "metallicFactor": 0,
        "roughnessFactor": 0.5
      }
    }
  ],
  "meshes": [
    {
      "name": "Cube.032",
      "primitives": [
        {
          "attributes": {
            "POSITION": 0,
            "NORMAL": 1,
            "TEXCOORD_0": 2
          },
          "indices": 3,
          "material": 0
        }
      ]
    },
    {
      "name": "Plane",
      "primitives": [
        {
          "attributes": {
            "POSITION": 4,
            "NORMAL": 5,
            "TEXCOORD_0": 6
          },
          "indices": 7,
          "material": 1
        }
      ]
    },
    {
      "name": "Cube",
      "primitives": [
        {
          "attributes": {
            "POSITION": 8,
            "NORMAL": 9,
            "TEXCOORD_0": 10
          },
          "indices": 11,
          "material": 1
        }
      ]
    },
    {
      "name": "Plane.001",
      "primitives": [
        {
          "attributes": {
            "POSITION": 12,
            "NORMAL": 13,
            "TEXCOORD_0": 14
          },
          "indices": 15,
          "material": 2
        }
      ]
    },
    {
      "name": "Cube.073",
      "primitives": [
        {
          "attributes": {
            "POSITION": 16,
            "NORMAL": 17,
            "TEXCOORD_0": 18
          },
          "indices": 19,
          "material": 3
        }
      ]
    },
    {
      "name": "Cube.033",
      "primitives": [
        {
          "attributes": {
            "POSITION": 20,
            "NORMAL": 21,
            "TEXCOORD_0": 22
          },
          "indices": 19,
          "material": 3
        }
      ]
    },
    {
      "name": "Cube.031",
      "primitives": [
        {
          "attributes": {
            "POSITION": 23,
            "NORMAL": 24,
            "TEXCOORD_0": 25
          },
          "indices": 3,
          "material": 4
        }
      ]
    },
    {
      "name": "Cube.001",
      "primitives": [
        {
          "attributes": {
            "POSITION": 26,
            "NORMAL": 27,
            "TEXCOORD_0": 28
          },
          "indices": 29,
          "material": 5
        }
      ]
    }
  ],
  "textures": [
    {
      "sampler": 0,
      "source": 0
    },
    {
      "sampler": 0,
      "source": 1
    },
    {
      "sampler": 0,
      "source": 2
    },
    {
      "sampler": 0,
      "source": 3
    },
    {
      "sampler": 0,
      "source": 4
    }
  ],
  "images": [
    {
      "name": "tunnel",
      "uri": "tunnel.blend_img0.png"
    },
    {
      "name": "Mountain",
      "uri": "tunnel.blend_img1.png"
    },
    {
      "name": "loco-truck",
      "uri": "tunnel.blend_img2.png"
    },
    {
      "name": "locomotive",
      "uri": "tunnel.blend_img3.png"
    },
    {
      "name": "track-texture",
      "uri": "tunnel.blend_img4.png"
    }
  ],
  "accessors": [
    {
      "bufferView": 0,
      "componentType": 5126,
      "count": 465,
      "max": [
        0.9301096796989441,
        1.034881830215454,
        3.697413444519043
      ],
      "min": [
        0,
        -0.9006988406181335,
        -3.775775194168091
      ],
      "type": "VEC3"
    },
    {
      "bufferView": 1,
      "componentType": 5126,
      "count": 465,
      "type": "VEC3"
    },
    {
      "bufferView": 2,
      "componentType": 5126,
      "count": 465,
      "type": "VEC2"
    },
    {
      "bufferView": 3,
      "componentType": 5123,
      "count": 741,
      "type": "SCALAR"
    },
    {
      "bufferView": 4,
      "componentType": 5126,
      "count": 24,
      "max": [
        1.5,
        2,
        2
      ],
      "min": [
        0,
        -1.0454320907592773,
        -5
      ],
      "type": "VEC3"
    },
    {
      "bufferView": 5,
      "componentType": 5126,
      "count": 24,
      "type": "VEC3"
    },
    {
      "bufferView": 6,
      "componentType": 5126,
      "count": 24,
      "type": "VEC2"
    },
    {
      "bufferView": 7,
      "componentType": 5123,
      "count": 36,
      "type": "SCALAR"
    },
    {
      "bufferView": 8,
      "componentType": 5126,
      "count": 12,
      "max": [
        2,
        3.5,
        4
      ],
      "min": [
        -2,
        -0.045431993901729584,
        -0.9505895376205444
      ],
      "type": "VEC3"
    },
    {
      "bufferView": 9,
      "componentType": 5126,
      "count": 12,
      "type": "VEC3"
    },
    {
      "bufferView": 10,
      "componentType": 5126,
      "count": 12,
      "type": "VEC2"
    },
    {
      "bufferView": 11,
      "componentType": 5123,
      "count": 18,
      "type": "SCALAR"
    },
    {
      "bufferView": 12,
      "componentType": 5126,
      "count": 58,
      "max": [
        6.2273664474487305,
        6.833465576171875,
        1.9229316711425781
      ],
      "min": [
        -8.104764938354492,
        -0.511175274848938,
        -10.832415580749512
      ],
      "type": "VEC3"
    },
    {
      "bufferView": 13,
      "componentType": 5126,
      "count": 58,
      "type": "VEC3"
    },
    {
      "bufferView": 14,
      "componentType": 5126,
      "count": 58,
      "type": "VEC2"
    },
    {
      "bufferView": 15,
      "componentType": 5123,
      "count": 240,
      "type": "SCALAR"
    },
    {
      "bufferView": 16,
      "componentType": 5126,
      "count": 324,
      "max": [
        0.9045566916465759,
        0.010875278152525425,
        1.5957118272781372
      ],
      "min": [
        0,
        -0.59281325340271,
        -1.0761252641677856
      ],
      "type": "VEC3"
    },
    {
      "bufferView": 17,
      "componentType": 5126,
      "count": 324,
      "type": "VEC3"
    },
    {
      "bufferView": 18,
      "componentType": 5126,
      "count": 324,
      "type": "VEC2"
    },
    {
      "bufferView": 19,
      "componentType": 5123,
      "count": 540,
      "type": "SCALAR"
    },
    {
      "bufferView": 20,
      "componentType": 5126,
      "count": 324,
      "max": [
        0.9045566916465759,
        0.010875278152525425,
        1.5957118272781372
      ],
      "min": [
        0,
        -0.59281325340271,
        -1.0761252641677856
      ],
      "type": "VEC3"
    },
    {
      "bufferView": 21,
      "componentType": 5126,
      "count": 324,
      "type": "VEC3"
    },
    {
      "bufferView": 22,
      "componentType": 5126,
      "count": 324,
      "type": "VEC2"
    },
    {
      "bufferView": 23,
      "componentType": 5126,
      "count": 465,
      "max": [
        0.9301096796989441,
        1.034881830215454,
        3.697413444519043
      ],
      "min": [
        0,
        -0.9006988406181335,
        -3.775775194168091
      ],
      "type": "VEC3"
    },
    {
      "bufferView": 24,
      "componentType": 5126,
      "count": 465,
      "type": "VEC3"
    },
    {
      "bufferView": 25,
      "componentType": 5126,
      "count": 465,
      "type": "VEC2"
    },
    {
      "bufferView": 26,
      "componentType": 5126,
      "count": 144,
      "max": [
        1,
        0.300658643245697,
        1
      ],
      "min": [
        -1,
        -0.03849051892757416,
        -1
      ],
      "type": "VEC3"
    },
    {
      "bufferView": 27,
      "componentType": 5126,
      "count": 144,
      "type": "VEC3"
    },
    {
      "bufferView": 28,
      "componentType": 5126,
      "count": 144,
      "type": "VEC2"
    },
    {
      "bufferView": 29,
      "componentType": 5123,
      "count": 216,
      "type": "SCALAR"
    }
  ],
  "bufferViews": [
    {
      "buffer": 0,
      "byteLength": 5580,
      "byteOffset": 0,
      "target": 34962
    },
    {
      "buffer": 0,
      "byteLength": 5580,
      "byteOffset": 5580,
      "target": 34962
    },
    {
      "buffer": 0,
      "byteLength": 3720,
      "byteOffset": 11160,
      "target": 34962
    },
    {
      "buffer": 0,
      "byteLength": 1484,
      "byteOffset": 14880,
      "target": 34963
    },
    {
      "buffer": 0,
      "byteLength": 288,
      "byteOffset": 16364,
      "target": 34962
    },
    {
      "buffer": 0,
      "byteLength": 288,
      "byteOffset": 16652,
      "target": 34962
    },
    {
      "buffer": 0,
      "byteLength": 192,
      "byteOffset": 16940,
      "target": 34962
    },
    {
      "buffer": 0,
      "byteLength": 72,
      "byteOffset": 17132,
      "target": 34963
    },
    {
      "buffer": 0,
      "byteLength": 144,
      "byteOffset": 17204,
      "target": 34962
    },
    {
      "buffer": 0,
      "byteLength": 144,
      "byteOffset": 17348,
      "target": 34962
    },
    {
      "buffer": 0,
      "byteLength": 96,
      "byteOffset": 17492,
      "target": 34962
    },
    {
      "buffer": 0,
      "byteLength": 36,
      "byteOffset": 17588,
      "target": 34963
    },
    {
      "buffer": 0,
      "byteLength": 696,
      "byteOffset": 17624,
      "target": 34962
    },
    {
      "buffer": 0,
      "byteLength": 696,
      "byteOffset": 18320,
      "target": 34962
    },
    {
      "buffer": 0,
      "byteLength": 464,
      "byteOffset": 19016,
      "target": 34962
    },
    {
      "buffer": 0,
      "byteLength": 480,
      "byteOffset": 19480,
      "target": 34963
    },
    {
      "buffer": 0,
      "byteLength": 3888,
      "byteOffset": 19960,
      "target": 34962
    },
    {
      "buffer": 0,
      "byteLength": 3888,
      "byteOffset": 23848,
      "target": 34962
    },
    {
      "buffer": 0,
      "byteLength": 2592,
      "byteOffset": 27736,
      "target": 34962
    },
    {
      "buffer": 0,
      "byteLength": 1080,
      "byteOffset": 30328,
      "target": 34963
    },
    {
      "buffer": 0,
      "byteLength": 3888,
      "byteOffset": 31408,
      "target": 34962
    },
    {
      "buffer": 0,
      "byteLength": 3888,
      "byteOffset": 35296,
      "target": 34962
    },
    {
      "buffer": 0,
      "byteLength": 2592,
      "byteOffset": 39184,
      "target": 34962
    },
    {
      "buffer": 0,
      "byteLength": 5580,
      "byteOffset": 41776,
      "target": 34962
    },
    {
      "buffer": 0,
      "byteLength": 5580,
      "byteOffset": 47356,
      "target": 34962
    },
    {
      "buffer": 0,
      "byteLength": 3720,
      "byteOffset": 52936,
      "target": 34962
    },
    {
      "buffer": 0,
      "byteLength": 1728,
      "byteOffset": 56656,
      "target": 34962
    },
    {
      "buffer": 0,
      "byteLength": 1728,
      "byteOffset": 58384,
      "target": 34962
    },
    {
      "buffer": 0,
      "byteLength": 1152,
      "byteOffset": 60112,
      "target": 34962
    },
    {
      "buffer": 0,
      "byteLength": 432,
      "byteOffset": 61264,
      "target": 34963
    }
  ],
  "samplers": [
    {
      "magFilter": 9728,
      "minFilter": 9984
    }
  ],
  "buffers": [
    {
      "uri": "tunnel.blend_data.bin",
      "byteLength": 61696
    }
  ]
}